<?xml version="1.0" standalone="no"?>
<!DOCTYPE svg PUBLIC "-//W3C//DTD SVG 20010904//EN"
 "http://www.w3.org/TR/2001/REC-SVG-20010904/DTD/svg10.dtd">
<svg version="1.0" xmlns="http://www.w3.org/2000/svg"
 width="371.000000pt" height="371.000000pt" viewBox="0 0 371.000000 371.000000"
 preserveAspectRatio="xMidYMid meet">
<metadata>
Created by potrace 1.11, written by Peter Selinger 2001-2013
</metadata>
<g transform="translate(0.000000,371.000000) scale(0.100000,-0.100000)"
fill="#000000" stroke="none">
<path d="M1699 3676 c-2 -2 -31 -7 -64 -10 -250 -28 -542 -136 -758 -281 -465
-311 -724 -798 -704 -1320 7 -173 10 -197 42 -321 96 -370 351 -710 688 -919
l49 -30 -6 -76 c-8 -117 -52 -269 -125 -432 -69 -155 -71 -164 -47 -222 20
-47 53 -66 104 -60 127 16 306 128 472 295 108 109 136 142 192 221 l39 55 57
-8 c66 -9 314 -11 387 -3 537 60 983 321 1266 742 118 174 213 418 234 603 4
30 9 66 11 80 5 30 5 232 0 280 -21 206 -95 430 -200 605 -50 85 -161 227
-231 297 -166 167 -315 265 -577 382 -86 38 -251 82 -418 112 -39 6 -405 16
-411 10z"/>
</g>
</svg>
